# MagicaVoxel @ Ephtracy

# material
mtllib monster-darkness.mtl
usemtl palette

# normals
vn -1 0 0
vn 1 0 0
vn 0 0 1
vn 0 0 -1
vn 0 -1 0
vn 0 1 0

# texcoords
vt 0.0136719 0.5
vt 0.525391 0.5
vt 0.869141 0.5
vt 0.951172 0.5
vt 0.958984 0.5

# verts
v -5 6 2
v -5 6 -0
v -5 7 4
v -5 7 2
v -5 7 -0
v -5 7 -1
v -5 8 -1
v -5 8 -2
v -5 12 4
v -5 12 -2
v -4 5 2
v -4 5 1
v -4 6 5
v -4 6 2
v -4 6 1
v -4 6 -0
v -4 6 -1
v -4 7 5
v -4 7 4
v -4 7 2
v -4 7 -0
v -4 7 -1
v -4 7 -2
v -4 8 5
v -4 8 4
v -4 8 -1
v -4 8 -2
v -4 8 -3
v -4 9 5
v -4 9 4
v -4 10 5
v -4 10 4
v -4 12 5
v -4 12 4
v -4 12 -2
v -4 12 -3
v -4 13 4
v -4 13 -2
v -3 4 2
v -3 4 1
v -3 5 4
v -3 5 2
v -3 5 1
v -3 5 -1
v -3 6 4
v -3 6 2
v -3 6 1
v -3 6 -1
v -3 6 -2
v -3 7 -1
v -3 7 -2
v -3 7 -3
v -3 8 -2
v -3 8 -3
v -3 9 -3
v -3 9 -4
v -3 11 -3
v -3 11 -4
v -3 12 5
v -3 12 4
v -3 12 -2
v -3 12 -3
v -3 13 5
v -3 13 4
v -3 13 -2
v -3 13 -3
v -2 3 1
v -2 3 -0
v -2 4 3
v -2 4 2
v -2 4 1
v -2 4 -0
v -2 4 -1
v -2 5 3
v -2 5 2
v -2 5 1
v -2 5 -1
v -2 5 -2
v -2 6 -1
v -2 6 -2
v -2 11 -3
v -2 11 -4
v -2 12 -3
v -2 12 -4
v -1 1 2
v -1 1 1
v -1 2 2
v -1 2 1
v -1 2 -0
v -1 3 2
v -1 3 1
v -1 3 -0
v -1 3 -1
v -1 4 2
v -1 4 1
v -1 4 -0
v -1 4 -1
v -1 6 -2
v -1 6 -3
v -1 7 -2
v -1 7 -3
v -1 8 -3
v -1 8 -4
v -1 9 -3
v -1 9 -4
v -1 13 3
v -1 13 2
v -1 14 3
v -1 14 2
v 0 0 1
v 0 0 -0
v 0 1 1
v 0 1 -0
v 0 9 -4
v 0 9 -5
v 0 11 -4
v 0 11 -5
v 0 13 4
v 0 13 3
v 0 14 4
v 0 14 3
v 1 13 3
v 1 13 2
v 1 13 -0
v 1 13 -1
v 1 14 3
v 1 14 -0
v 1 14 -1
v 1 15 3
v 1 15 2
v 2 13 2
v 2 13 -0
v 2 14 1
v 2 14 -0
v 2 15 2
v 2 15 1
v 0 1 2
v 0 1 1
v 0 2 2
v 0 2 1
v 0 3 -0
v 0 3 -1
v 0 4 -0
v 0 4 -1
v 0 13 3
v 0 13 2
v 0 14 3
v 0 14 2
v 1 0 1
v 1 0 -0
v 1 1 1
v 1 1 -0
v 1 2 1
v 1 2 -0
v 1 3 2
v 1 3 1
v 1 3 -0
v 1 4 3
v 1 4 2
v 1 4 1
v 1 4 -0
v 1 4 -1
v 1 5 3
v 1 5 2
v 1 5 -0
v 1 5 -1
v 2 3 1
v 2 3 -0
v 2 4 2
v 2 4 1
v 2 4 -0
v 2 5 4
v 2 5 3
v 2 5 2
v 2 5 1
v 2 5 -1
v 2 5 -2
v 2 6 4
v 2 6 3
v 2 6 -1
v 2 6 -2
v 2 6 -3
v 2 7 -2
v 2 7 -3
v 2 8 -3
v 2 8 -4
v 2 9 -3
v 2 9 -4
v 2 9 -5
v 2 11 -3
v 2 11 -4
v 2 11 -5
v 2 12 -3
v 2 12 -4
v 2 13 4
v 2 13 3
v 2 13 -0
v 2 13 -1
v 2 14 4
v 2 14 3
v 2 14 2
v 2 14 -0
v 2 14 -1
v 2 15 3
v 2 15 2
v 3 4 1
v 3 4 -0
v 3 5 3
v 3 5 1
v 3 5 -0
v 3 5 -1
v 3 6 3
v 3 6 -1
v 3 6 -2
v 3 7 -1
v 3 7 -2
v 3 7 -3
v 3 8 -2
v 3 8 -3
v 3 9 -3
v 3 9 -4
v 3 11 -3
v 3 11 -4
v 3 12 5
v 3 12 4
v 3 12 -2
v 3 12 -3
v 3 13 5
v 3 13 4
v 3 13 3
v 3 13 2
v 3 13 1
v 3 13 -0
v 3 13 -2
v 3 13 -3
v 3 14 3
v 3 14 2
v 3 14 1
v 3 14 -0
v 3 15 2
v 3 15 1
v 4 6 5
v 4 6 -1
v 4 7 5
v 4 7 4
v 4 7 3
v 4 7 -1
v 4 7 -2
v 4 8 5
v 4 8 4
v 4 8 3
v 4 8 -1
v 4 8 -2
v 4 8 -3
v 4 9 5
v 4 9 4
v 4 10 5
v 4 10 4
v 4 12 5
v 4 12 4
v 4 12 -2
v 4 12 -3
v 4 13 4
v 4 13 2
v 4 13 1
v 4 13 -2
v 4 14 2
v 4 14 1
v 5 7 3
v 5 7 -1
v 5 8 4
v 5 8 3
v 5 8 -1
v 5 8 -2
v 5 12 4
v 5 12 -2
v -4 6 5
v -4 7 5
v -4 8 5
v -4 9 5
v -4 10 5
v -4 12 5
v -3 8 5
v -3 9 5
v -3 12 5
v -3 13 5
v -2 7 5
v -2 8 5
v -2 9 5
v -1 9 5
v -1 10 5
v 1 9 5
v 1 10 5
v 2 7 5
v 2 8 5
v 2 9 5
v 3 8 5
v 3 9 5
v 3 12 5
v 3 13 5
v 4 6 5
v 4 7 5
v 4 8 5
v 4 9 5
v 4 10 5
v 4 12 5
v -5 7 4
v -5 12 4
v -4 7 4
v -4 8 4
v -4 9 4
v -4 10 4
v -4 12 4
v -4 13 4
v -3 5 4
v -3 6 4
v -3 12 4
v -3 13 4
v 0 13 4
v 0 14 4
v 2 5 4
v 2 6 4
v 2 13 4
v 2 14 4
v 3 12 4
v 3 13 4
v 4 8 4
v 4 9 4
v 4 10 4
v 4 12 4
v 4 13 4
v 5 8 4
v 5 12 4
v -2 4 3
v -2 5 3
v -1 13 3
v -1 14 3
v 0 13 3
v 0 14 3
v 1 4 3
v 1 5 3
v 1 14 3
v 1 15 3
v 2 5 3
v 2 6 3
v 2 13 3
v 2 14 3
v 2 15 3
v 3 5 3
v 3 6 3
v 3 13 3
v 3 14 3
v 4 7 3
v 4 8 3
v 5 7 3
v 5 8 3
v -5 6 2
v -5 7 2
v -4 5 2
v -4 6 2
v -4 7 2
v -3 4 2
v -3 5 2
v -3 6 2
v -2 4 2
v -2 5 2
v -1 1 2
v -1 2 2
v -1 3 2
v -1 4 2
v 0 1 2
v 0 2 2
v 1 3 2
v 1 4 2
v 1 5 2
v 2 4 2
v 2 5 2
v 2 14 2
v 2 15 2
v 3 13 2
v 3 14 2
v 3 15 2
v 4 13 2
v 4 14 2
v -2 3 1
v -2 4 1
v -1 2 1
v -1 3 1
v -1 4 1
v 0 0 1
v 0 1 1
v 0 2 1
v 1 0 1
v 1 1 1
v 1 2 1
v 1 3 1
v 1 4 1
v 2 3 1
v 2 4 1
v 2 5 1
v 3 4 1
v 3 5 1
v 1 13 -0
v 1 14 -0
v 2 13 -0
v 2 14 -0
v 0 13 3
v 0 14 3
v 1 13 3
v 1 14 3
v -1 13 2
v -1 14 2
v 0 13 2
v 0 14 2
v 1 13 2
v 1 15 2
v 2 13 2
v 2 15 2
v -4 5 1
v -4 6 1
v -3 4 1
v -3 5 1
v -3 6 1
v -2 4 1
v -2 5 1
v -1 1 1
v -1 2 1
v 0 1 1
v 0 2 1
v 2 14 1
v 2 15 1
v 3 13 1
v 3 14 1
v 3 15 1
v 4 13 1
v 4 14 1
v -5 6 -0
v -5 7 -0
v -4 6 -0
v -4 7 -0
v -2 3 -0
v -2 4 -0
v -1 2 -0
v -1 3 -0
v -1 4 -0
v 0 0 -0
v 0 1 -0
v 0 3 -0
v 0 4 -0
v 1 0 -0
v 1 1 -0
v 1 2 -0
v 1 3 -0
v 1 4 -0
v 1 5 -0
v 2 3 -0
v 2 4 -0
v 2 13 -0
v 2 14 -0
v 3 4 -0
v 3 5 -0
v 3 13 -0
v 3 14 -0
v -5 7 -1
v -5 8 -1
v -4 6 -1
v -4 7 -1
v -4 8 -1
v -3 5 -1
v -3 6 -1
v -3 7 -1
v -2 4 -1
v -2 5 -1
v -2 6 -1
v -1 3 -1
v -1 4 -1
v 0 3 -1
v 0 4 -1
v 1 4 -1
v 1 5 -1
v 1 13 -1
v 1 14 -1
v 2 5 -1
v 2 6 -1
v 2 13 -1
v 2 14 -1
v 3 5 -1
v 3 6 -1
v 3 7 -1
v 4 6 -1
v 4 7 -1
v 4 8 -1
v 5 7 -1
v 5 8 -1
v -5 8 -2
v -5 12 -2
v -4 7 -2
v -4 8 -2
v -4 12 -2
v -4 13 -2
v -3 6 -2
v -3 7 -2
v -3 8 -2
v -3 12 -2
v -3 13 -2
v -2 5 -2
v -2 6 -2
v -1 6 -2
v -1 7 -2
v 2 5 -2
v 2 6 -2
v 2 7 -2
v 3 6 -2
v 3 7 -2
v 3 8 -2
v 3 12 -2
v 3 13 -2
v 4 7 -2
v 4 8 -2
v 4 12 -2
v 4 13 -2
v 5 8 -2
v 5 12 -2
v -4 8 -3
v -4 12 -3
v -3 7 -3
v -3 8 -3
v -3 9 -3
v -3 11 -3
v -3 12 -3
v -3 13 -3
v -2 11 -3
v -2 12 -3
v -1 6 -3
v -1 7 -3
v -1 8 -3
v -1 9 -3
v 2 6 -3
v 2 7 -3
v 2 8 -3
v 2 9 -3
v 2 11 -3
v 2 12 -3
v 3 7 -3
v 3 8 -3
v 3 9 -3
v 3 11 -3
v 3 12 -3
v 3 13 -3
v 4 8 -3
v 4 12 -3
v -3 9 -4
v -3 11 -4
v -2 11 -4
v -2 12 -4
v -1 8 -4
v -1 9 -4
v 0 9 -4
v 0 11 -4
v 2 8 -4
v 2 9 -4
v 2 11 -4
v 2 12 -4
v 3 9 -4
v 3 11 -4
v 0 9 -5
v 0 11 -5
v 2 9 -5
v 2 11 -5
v 0 0 1
v 1 0 1
v 0 0 -0
v 1 0 -0
v -1 1 2
v 0 1 2
v -1 1 1
v 0 1 1
v -1 2 1
v 0 2 1
v 1 2 1
v -1 2 -0
v 1 2 -0
v -1 3 2
v 1 3 2
v -2 3 1
v -1 3 1
v 1 3 1
v 2 3 1
v -2 3 -0
v -1 3 -0
v 0 3 -0
v 1 3 -0
v 2 3 -0
v -1 3 -1
v 0 3 -1
v -2 4 3
v 1 4 3
v -3 4 2
v -2 4 2
v -1 4 2
v 1 4 2
v 2 4 2
v -3 4 1
v -2 4 1
v -1 4 1
v 1 4 1
v 2 4 1
v 3 4 1
v -2 4 -0
v -1 4 -0
v 0 4 -0
v 1 4 -0
v 2 4 -0
v 3 4 -0
v -2 4 -1
v -1 4 -1
v 0 4 -1
v 1 4 -1
v -3 5 4
v 2 5 4
v -2 5 3
v 1 5 3
v 2 5 3
v 3 5 3
v -4 5 2
v -3 5 2
v -2 5 2
v 1 5 2
v 2 5 2
v -4 5 1
v -3 5 1
v -2 5 1
v 2 5 1
v 3 5 1
v 1 5 -0
v 3 5 -0
v -3 5 -1
v -2 5 -1
v 1 5 -1
v 2 5 -1
v 3 5 -1
v -2 5 -2
v 2 5 -2
v -4 6 5
v 4 6 5
v -3 6 4
v 2 6 4
v 2 6 3
v 3 6 3
v -5 6 2
v -4 6 2
v -3 6 2
v -4 6 1
v -3 6 1
v -5 6 -0
v -4 6 -0
v -4 6 -1
v -3 6 -1
v -2 6 -1
v 2 6 -1
v 3 6 -1
v 4 6 -1
v -3 6 -2
v -2 6 -2
v -1 6 -2
v 2 6 -2
v 3 6 -2
v -1 6 -3
v 2 6 -3
v -5 7 4
v -4 7 4
v 4 7 3
v 5 7 3
v -5 7 2
v -4 7 2
v -5 7 -0
v -4 7 -0
v -5 7 -1
v -4 7 -1
v -3 7 -1
v 3 7 -1
v 4 7 -1
v 5 7 -1
v -4 7 -2
v -3 7 -2
v -1 7 -2
v 2 7 -2
v 3 7 -2
v 4 7 -2
v -3 7 -3
v -1 7 -3
v 2 7 -3
v 3 7 -3
v 4 8 4
v 5 8 4
v 4 8 3
v 5 8 3
v -5 8 -1
v -4 8 -1
v 4 8 -1
v 5 8 -1
v -5 8 -2
v -4 8 -2
v -3 8 -2
v 3 8 -2
v 4 8 -2
v 5 8 -2
v -4 8 -3
v -3 8 -3
v -1 8 -3
v 2 8 -3
v 3 8 -3
v 4 8 -3
v -1 8 -4
v 2 8 -4
v -3 9 -3
v -1 9 -3
v 2 9 -3
v 3 9 -3
v -3 9 -4
v -1 9 -4
v 0 9 -4
v 2 9 -4
v 3 9 -4
v 0 9 -5
v 2 9 -5
v 0 1 1
v 1 1 1
v 0 1 -0
v 1 1 -0
v -1 2 2
v 0 2 2
v -1 2 1
v 0 2 1
v -3 11 -3
v -2 11 -3
v 2 11 -3
v 3 11 -3
v -3 11 -4
v -2 11 -4
v 0 11 -4
v 2 11 -4
v 3 11 -4
v 0 11 -5
v 2 11 -5
v -4 12 5
v -3 12 5
v 3 12 5
v 4 12 5
v -5 12 4
v -4 12 4
v -3 12 4
v 3 12 4
v 4 12 4
v 5 12 4
v -5 12 -2
v -4 12 -2
v -3 12 -2
v 3 12 -2
v 4 12 -2
v 5 12 -2
v -4 12 -3
v -3 12 -3
v -2 12 -3
v 2 12 -3
v 3 12 -3
v 4 12 -3
v -2 12 -4
v 2 12 -4
v -3 13 5
v 3 13 5
v -4 13 4
v -3 13 4
v 0 13 4
v 2 13 4
v 3 13 4
v 4 13 4
v -1 13 3
v 0 13 3
v 1 13 3
v 2 13 3
v 3 13 3
v -1 13 2
v 0 13 2
v 1 13 2
v 2 13 2
v 3 13 2
v 4 13 2
v 3 13 1
v 4 13 1
v 1 13 -0
v 2 13 -0
v 3 13 -0
v 1 13 -1
v 2 13 -1
v -4 13 -2
v -3 13 -2
v 3 13 -2
v 4 13 -2
v -3 13 -3
v 3 13 -3
v 0 14 4
v 2 14 4
v -1 14 3
v 0 14 3
v 1 14 3
v 2 14 3
v 3 14 3
v -1 14 2
v 0 14 2
v 2 14 2
v 3 14 2
v 4 14 2
v 2 14 1
v 3 14 1
v 4 14 1
v 1 14 -0
v 2 14 -0
v 3 14 -0
v 1 14 -1
v 2 14 -1
v 1 15 3
v 2 15 3
v 1 15 2
v 2 15 2
v 3 15 2
v 2 15 1
v 3 15 1

# faces
f 4/4/1 2/4/1 1/4/1
f 5/4/1 2/4/1 4/4/1
f 7/4/1 4/4/1 3/4/1
f 7/4/1 6/4/1 5/4/1
f 7/4/1 5/4/1 4/4/1
f 9/4/1 7/4/1 3/4/1
f 9/4/1 8/4/1 7/4/1
f 10/4/1 8/4/1 9/4/1
f 14/4/1 12/4/1 11/4/1
f 15/4/1 12/4/1 14/4/1
f 18/4/1 14/4/1 13/4/1
f 19/4/1 14/4/1 18/4/1
f 20/4/1 14/4/1 19/4/1
f 21/4/1 17/4/1 16/4/1
f 22/4/1 17/4/1 21/4/1
f 24/3/1 19/3/1 18/3/1
f 25/3/1 19/3/1 24/3/1
f 26/4/1 23/4/1 22/4/1
f 27/4/1 23/4/1 26/4/1
f 29/4/1 25/4/1 24/4/1
f 30/4/1 25/4/1 29/4/1
f 31/2/1 30/2/1 29/2/1
f 32/2/1 30/2/1 31/2/1
f 33/4/1 32/4/1 31/4/1
f 34/4/1 32/4/1 33/4/1
f 35/4/1 28/4/1 27/4/1
f 36/4/1 28/4/1 35/4/1
f 37/4/1 35/4/1 34/4/1
f 38/4/1 35/4/1 37/4/1
f 42/4/1 40/4/1 39/4/1
f 43/4/1 40/4/1 42/4/1
f 45/4/1 42/4/1 41/4/1
f 46/4/1 42/4/1 45/4/1
f 47/4/1 44/4/1 43/4/1
f 48/4/1 44/4/1 47/4/1
f 50/4/1 49/4/1 48/4/1
f 51/4/1 49/4/1 50/4/1
f 53/4/1 52/4/1 51/4/1
f 54/4/1 52/4/1 53/4/1
f 57/4/1 56/4/1 55/4/1
f 58/4/1 56/4/1 57/4/1
f 63/4/1 60/4/1 59/4/1
f 64/4/1 60/4/1 63/4/1
f 65/4/1 62/4/1 61/4/1
f 66/4/1 62/4/1 65/4/1
f 71/4/1 68/4/1 67/4/1
f 72/4/1 68/4/1 71/4/1
f 74/4/1 70/4/1 69/4/1
f 75/4/1 70/4/1 74/4/1
f 76/4/1 73/4/1 72/4/1
f 76/4/1 72/4/1 71/4/1
f 77/4/1 73/4/1 76/4/1
f 79/4/1 78/4/1 77/4/1
f 80/4/1 78/4/1 79/4/1
f 83/4/1 82/4/1 81/4/1
f 84/4/1 82/4/1 83/4/1
f 87/4/1 86/4/1 85/4/1
f 88/4/1 86/4/1 87/4/1
f 91/4/1 89/4/1 88/4/1
f 92/4/1 89/4/1 91/4/1
f 94/4/1 91/4/1 90/4/1
f 95/4/1 91/4/1 94/4/1
f 96/4/1 93/4/1 92/4/1
f 97/4/1 93/4/1 96/4/1
f 100/4/1 99/4/1 98/4/1
f 101/4/1 99/4/1 100/4/1
f 104/4/1 103/4/1 102/4/1
f 105/4/1 103/4/1 104/4/1
f 108/1/1 107/1/1 106/1/1
f 109/1/1 107/1/1 108/1/1
f 112/4/1 111/4/1 110/4/1
f 113/4/1 111/4/1 112/4/1
f 116/4/1 115/4/1 114/4/1
f 117/4/1 115/4/1 116/4/1
f 120/1/1 119/1/1 118/1/1
f 121/1/1 119/1/1 120/1/1
f 126/1/1 123/1/1 122/1/1
f 127/1/1 125/1/1 124/1/1
f 128/1/1 125/1/1 127/1/1
f 129/1/1 123/1/1 126/1/1
f 130/1/1 123/1/1 129/1/1
f 133/1/1 132/1/1 131/1/1
f 134/1/1 132/1/1 133/1/1
f 135/1/1 133/1/1 131/1/1
f 136/1/1 133/1/1 135/1/1
f 137/4/2 138/4/2 139/4/2
f 139/4/2 138/4/2 140/4/2
f 141/4/2 142/4/2 143/4/2
f 143/4/2 142/4/2 144/4/2
f 145/1/2 146/1/2 147/1/2
f 147/1/2 146/1/2 148/1/2
f 149/4/2 150/4/2 151/4/2
f 151/4/2 150/4/2 152/4/2
f 153/4/2 154/4/2 156/4/2
f 156/4/2 154/4/2 157/4/2
f 155/4/2 156/4/2 159/4/2
f 159/4/2 156/4/2 160/4/2
f 158/4/2 159/4/2 163/4/2
f 163/4/2 159/4/2 164/4/2
f 161/4/2 162/4/2 165/4/2
f 165/4/2 162/4/2 166/4/2
f 167/4/2 168/4/2 170/4/2
f 170/4/2 168/4/2 171/4/2
f 169/4/2 170/4/2 174/4/2
f 174/4/2 170/4/2 175/4/2
f 172/4/2 173/4/2 178/4/2
f 178/4/2 173/4/2 179/4/2
f 176/4/2 177/4/2 180/4/2
f 180/4/2 177/4/2 181/4/2
f 181/4/2 182/4/2 183/4/2
f 183/4/2 182/4/2 184/4/2
f 185/4/2 186/4/2 187/4/2
f 187/4/2 186/4/2 188/4/2
f 188/4/2 189/4/2 191/4/2
f 191/4/2 189/4/2 192/4/2
f 190/4/2 191/4/2 193/4/2
f 193/4/2 191/4/2 194/4/2
f 195/1/2 196/1/2 199/1/2
f 199/1/2 196/1/2 200/1/2
f 197/1/2 198/1/2 202/1/2
f 202/1/2 198/1/2 203/1/2
f 200/1/2 201/1/2 204/1/2
f 204/1/2 201/1/2 205/1/2
f 206/4/2 207/4/2 209/4/2
f 209/4/2 207/4/2 210/4/2
f 208/4/2 209/4/2 212/4/2
f 210/4/2 211/4/2 212/4/2
f 209/4/2 210/4/2 212/4/2
f 212/4/2 211/4/2 213/4/2
f 213/4/2 214/4/2 215/4/2
f 215/4/2 214/4/2 216/4/2
f 216/4/2 217/4/2 218/4/2
f 218/4/2 217/4/2 219/4/2
f 220/4/2 221/4/2 222/4/2
f 222/4/2 221/4/2 223/4/2
f 224/4/2 225/4/2 228/4/2
f 228/4/2 225/4/2 229/4/2
f 226/4/2 227/4/2 234/4/2
f 234/4/2 227/4/2 235/4/2
f 230/1/2 231/1/2 236/1/2
f 236/1/2 231/1/2 237/1/2
f 232/1/2 233/1/2 238/1/2
f 238/1/2 233/1/2 239/1/2
f 237/1/2 238/1/2 240/1/2
f 240/1/2 238/1/2 241/1/2
f 242/4/2 243/4/2 244/4/2
f 244/4/2 243/4/2 245/4/2
f 245/4/2 243/4/2 246/4/2
f 246/4/2 243/4/2 247/4/2
f 244/3/2 245/3/2 249/3/2
f 245/4/2 246/4/2 250/4/2
f 249/3/2 245/3/2 250/3/2
f 250/4/2 246/4/2 251/4/2
f 247/4/2 248/4/2 252/4/2
f 252/4/2 248/4/2 253/4/2
f 249/4/2 250/4/2 255/4/2
f 255/4/2 250/4/2 256/4/2
f 255/2/2 256/2/2 257/2/2
f 257/2/2 256/2/2 258/2/2
f 257/4/2 258/4/2 259/4/2
f 259/4/2 258/4/2 260/4/2
f 253/4/2 254/4/2 261/4/2
f 261/4/2 254/4/2 262/4/2
f 260/4/2 261/4/2 263/4/2
f 263/4/2 261/4/2 264/4/2
f 264/4/2 261/4/2 265/4/2
f 265/4/2 261/4/2 266/4/2
f 264/1/2 265/1/2 267/1/2
f 267/1/2 265/1/2 268/1/2
f 269/4/2 270/4/2 272/4/2
f 272/4/2 270/4/2 273/4/2
f 271/4/2 272/4/2 275/4/2
f 273/4/2 274/4/2 275/4/2
f 272/4/2 273/4/2 275/4/2
f 275/4/2 274/4/2 276/4/2
f 283/3/3 279/3/3 278/3/3
f 283/4/3 280/4/3 279/4/3
f 284/2/3 281/2/3 280/2/3
f 284/4/3 280/4/3 283/4/3
f 285/4/3 282/4/3 281/4/3
f 287/4/3 278/4/3 277/4/3
f 287/3/3 283/3/3 278/3/3
f 288/2/3 284/2/3 283/2/3
f 288/3/3 283/3/3 287/3/3
f 289/2/3 281/2/3 284/2/3
f 289/2/3 284/2/3 288/2/3
f 290/4/3 288/4/3 287/4/3
f 290/2/3 281/2/3 289/2/3
f 290/4/3 289/4/3 288/4/3
f 291/4/3 286/4/3 285/4/3
f 291/2/3 281/2/3 290/2/3
f 291/4/3 285/4/3 281/4/3
f 292/4/3 290/4/3 287/4/3
f 292/4/3 291/4/3 290/4/3
f 293/4/3 286/4/3 291/4/3
f 293/4/3 291/4/3 292/4/3
f 294/4/3 292/4/3 287/4/3
f 294/4/3 287/4/3 277/4/3
f 295/4/3 292/4/3 294/4/3
f 296/2/3 293/2/3 292/2/3
f 296/4/3 292/4/3 295/4/3
f 297/3/3 295/3/3 294/3/3
f 297/2/3 296/2/3 295/2/3
f 298/2/3 293/2/3 296/2/3
f 298/2/3 296/2/3 297/2/3
f 299/4/3 286/4/3 293/4/3
f 300/4/3 286/4/3 299/4/3
f 301/4/3 294/4/3 277/4/3
f 302/3/3 297/3/3 294/3/3
f 302/4/3 294/4/3 301/4/3
f 303/4/3 298/4/3 297/4/3
f 303/3/3 297/3/3 302/3/3
f 304/2/3 293/2/3 298/2/3
f 304/4/3 298/4/3 303/4/3
f 305/4/3 299/4/3 293/4/3
f 305/2/3 293/2/3 304/2/3
f 306/4/3 299/4/3 305/4/3
f 309/4/3 308/4/3 307/4/3
f 310/4/3 308/4/3 309/4/3
f 311/4/3 308/4/3 310/4/3
f 312/4/3 308/4/3 311/4/3
f 313/4/3 308/4/3 312/4/3
f 317/4/3 314/4/3 313/4/3
f 318/4/3 314/4/3 317/4/3
f 321/4/3 316/4/3 315/4/3
f 322/4/3 316/4/3 321/4/3
f 323/1/3 320/1/3 319/1/3
f 324/1/3 320/1/3 323/1/3
f 330/4/3 326/4/3 325/4/3
f 331/4/3 326/4/3 330/4/3
f 332/4/3 329/4/3 328/4/3
f 332/4/3 328/4/3 327/4/3
f 332/4/3 330/4/3 329/4/3
f 333/4/3 330/4/3 332/4/3
f 338/1/3 337/1/3 336/1/3
f 339/1/3 337/1/3 338/1/3
f 340/4/3 335/4/3 334/4/3
f 341/4/3 335/4/3 340/4/3
f 347/1/3 343/1/3 342/1/3
f 348/1/3 343/1/3 347/1/3
f 349/4/3 345/4/3 344/4/3
f 350/4/3 345/4/3 349/4/3
f 351/1/3 347/1/3 346/1/3
f 352/1/3 347/1/3 351/1/3
f 355/4/3 354/4/3 353/4/3
f 356/4/3 354/4/3 355/4/3
f 360/4/3 358/4/3 357/4/3
f 361/4/3 358/4/3 360/4/3
f 363/4/3 360/4/3 359/4/3
f 364/4/3 360/4/3 363/4/3
f 365/4/3 363/4/3 362/4/3
f 366/4/3 363/4/3 365/4/3
f 371/4/3 368/4/3 367/4/3
f 372/4/3 368/4/3 371/4/3
f 373/4/3 370/4/3 369/4/3
f 374/4/3 370/4/3 373/4/3
f 376/4/3 375/4/3 374/4/3
f 377/4/3 375/4/3 376/4/3
f 381/1/3 379/1/3 378/1/3
f 382/1/3 379/1/3 381/1/3
f 383/1/3 381/1/3 380/1/3
f 384/1/3 381/1/3 383/1/3
f 388/4/3 386/4/3 385/4/3
f 389/4/3 386/4/3 388/4/3
f 392/4/3 388/4/3 387/4/3
f 393/4/3 391/4/3 390/4/3
f 394/4/3 391/4/3 393/4/3
f 395/4/3 388/4/3 392/4/3
f 396/4/3 388/4/3 395/4/3
f 398/4/3 397/4/3 396/4/3
f 399/4/3 397/4/3 398/4/3
f 401/4/3 400/4/3 399/4/3
f 402/4/3 400/4/3 401/4/3
f 405/1/3 404/1/3 403/1/3
f 406/1/3 404/1/3 405/1/3
f 407/1/4 408/1/4 409/1/4
f 409/1/4 408/1/4 410/1/4
f 411/1/4 412/1/4 413/1/4
f 413/1/4 412/1/4 414/1/4
f 415/1/4 416/1/4 417/1/4
f 417/1/4 416/1/4 418/1/4
f 419/4/4 420/4/4 422/4/4
f 422/4/4 420/4/4 423/4/4
f 421/4/4 422/4/4 424/4/4
f 424/4/4 422/4/4 425/4/4
f 426/4/4 427/4/4 428/4/4
f 428/4/4 427/4/4 429/4/4
f 430/1/4 431/1/4 433/1/4
f 433/1/4 431/1/4 434/1/4
f 432/1/4 433/1/4 435/1/4
f 435/1/4 433/1/4 436/1/4
f 437/4/4 438/4/4 439/4/4
f 439/4/4 438/4/4 440/4/4
f 441/4/4 442/4/4 444/4/4
f 444/4/4 442/4/4 445/4/4
f 443/4/4 444/4/4 448/4/4
f 446/4/4 447/4/4 450/4/4
f 450/4/4 447/4/4 451/4/4
f 448/4/4 449/4/4 452/4/4
f 443/4/4 448/4/4 452/4/4
f 452/4/4 449/4/4 453/4/4
f 453/4/4 449/4/4 454/4/4
f 454/4/4 455/4/4 456/4/4
f 453/4/4 454/4/4 456/4/4
f 456/4/4 455/4/4 457/4/4
f 457/4/4 455/4/4 460/4/4
f 460/4/4 455/4/4 461/4/4
f 458/1/4 459/1/4 462/1/4
f 462/1/4 459/1/4 463/1/4
f 464/4/4 465/4/4 467/4/4
f 467/4/4 465/4/4 468/4/4
f 466/4/4 467/4/4 470/4/4
f 470/4/4 467/4/4 471/4/4
f 469/4/4 470/4/4 473/4/4
f 473/4/4 470/4/4 474/4/4
f 472/4/4 473/4/4 476/4/4
f 475/4/4 476/4/4 477/4/4
f 476/4/4 473/4/4 478/4/4
f 477/4/4 476/4/4 478/4/4
f 478/4/4 473/4/4 479/4/4
f 479/4/4 473/4/4 480/4/4
f 481/1/4 482/1/4 485/1/4
f 485/1/4 482/1/4 486/1/4
f 483/4/4 484/4/4 487/4/4
f 487/4/4 484/4/4 488/4/4
f 488/4/4 489/4/4 490/4/4
f 490/4/4 489/4/4 491/4/4
f 491/4/4 492/4/4 493/4/4
f 493/4/4 492/4/4 494/4/4
f 495/4/4 496/4/4 498/4/4
f 498/4/4 496/4/4 499/4/4
f 497/4/4 498/4/4 502/4/4
f 502/4/4 498/4/4 503/4/4
f 499/4/4 500/4/4 504/4/4
f 504/4/4 500/4/4 505/4/4
f 501/4/4 502/4/4 507/4/4
f 507/4/4 502/4/4 508/4/4
f 506/4/4 507/4/4 508/4/4
f 508/4/4 502/4/4 509/4/4
f 506/4/4 508/4/4 510/4/4
f 510/4/4 508/4/4 511/4/4
f 511/4/4 512/4/4 513/4/4
f 513/4/4 512/4/4 514/4/4
f 514/4/4 515/4/4 518/4/4
f 518/4/4 515/4/4 519/4/4
f 516/4/4 517/4/4 520/4/4
f 520/4/4 517/4/4 521/4/4
f 519/4/4 520/4/4 522/4/4
f 522/4/4 520/4/4 523/4/4
f 524/4/4 525/4/4 527/4/4
f 527/4/4 525/4/4 528/4/4
f 528/4/4 525/4/4 529/4/4
f 529/4/4 525/4/4 530/4/4
f 530/4/4 531/4/4 532/4/4
f 529/4/4 530/4/4 532/4/4
f 532/4/4 531/4/4 533/4/4
f 526/4/4 527/4/4 535/4/4
f 527/4/4 528/4/4 535/4/4
f 535/4/4 528/4/4 536/4/4
f 536/4/4 528/4/4 537/4/4
f 534/4/4 535/4/4 538/4/4
f 535/4/4 536/4/4 538/4/4
f 538/4/4 536/4/4 539/4/4
f 539/4/4 536/4/4 540/4/4
f 533/4/4 531/4/4 543/4/4
f 539/4/4 540/4/4 544/4/4
f 540/4/4 541/4/4 544/4/4
f 544/4/4 541/4/4 545/4/4
f 545/4/4 541/4/4 546/4/4
f 542/4/4 543/4/4 547/4/4
f 543/4/4 531/4/4 548/4/4
f 547/4/4 543/4/4 548/4/4
f 548/4/4 531/4/4 549/4/4
f 545/4/4 546/4/4 550/4/4
f 546/4/4 547/4/4 550/4/4
f 547/4/4 548/4/4 550/4/4
f 550/4/4 548/4/4 551/4/4
f 552/4/4 553/4/4 554/4/4
f 552/4/4 554/4/4 557/4/4
f 554/4/4 555/4/4 557/4/4
f 557/4/4 555/4/4 558/4/4
f 556/4/4 557/4/4 558/4/4
f 558/4/4 555/4/4 559/4/4
f 556/4/4 558/4/4 560/4/4
f 560/4/4 558/4/4 561/4/4
f 559/4/4 555/4/4 562/4/4
f 562/4/4 555/4/4 563/4/4
f 561/4/4 562/4/4 564/4/4
f 564/4/4 562/4/4 565/4/4
f 566/4/4 567/4/4 568/4/4
f 568/4/4 567/4/4 569/4/4
f 572/4/5 571/4/5 570/4/5
f 573/4/5 571/4/5 572/4/5
f 576/4/5 575/4/5 574/4/5
f 577/4/5 575/4/5 576/4/5
f 581/4/5 579/4/5 578/4/5
f 581/4/5 580/4/5 579/4/5
f 582/4/5 580/4/5 581/4/5
f 586/4/5 584/4/5 583/4/5
f 587/4/5 584/4/5 586/4/5
f 589/4/5 586/4/5 585/4/5
f 590/4/5 586/4/5 589/4/5
f 592/4/5 588/4/5 587/4/5
f 593/4/5 588/4/5 592/4/5
f 594/4/5 591/4/5 590/4/5
f 595/4/5 591/4/5 594/4/5
f 599/4/5 597/4/5 596/4/5
f 600/4/5 597/4/5 599/4/5
f 601/4/5 597/4/5 600/4/5
f 603/4/5 599/4/5 598/4/5
f 603/4/5 600/4/5 599/4/5
f 604/4/5 600/4/5 603/4/5
f 605/4/5 600/4/5 604/4/5
f 606/4/5 602/4/5 601/4/5
f 607/4/5 602/4/5 606/4/5
f 613/4/5 608/4/5 607/4/5
f 614/4/5 608/4/5 613/4/5
f 615/4/5 610/4/5 609/4/5
f 616/4/5 610/4/5 615/4/5
f 617/4/5 612/4/5 611/4/5
f 618/4/5 612/4/5 617/4/5
f 621/4/5 620/4/5 619/4/5
f 622/4/5 620/4/5 621/4/5
f 623/4/5 620/4/5 622/4/5
f 626/4/5 621/4/5 619/4/5
f 627/4/5 621/4/5 626/4/5
f 628/4/5 623/4/5 622/4/5
f 628/4/5 624/4/5 623/4/5
f 629/4/5 624/4/5 628/4/5
f 630/4/5 626/4/5 625/4/5
f 631/4/5 626/4/5 630/4/5
f 633/4/5 624/4/5 629/4/5
f 634/4/5 624/4/5 633/4/5
f 637/4/5 632/4/5 631/4/5
f 638/4/5 632/4/5 637/4/5
f 639/4/5 636/4/5 635/4/5
f 640/4/5 636/4/5 639/4/5
f 641/4/5 636/4/5 640/4/5
f 642/4/5 639/4/5 638/4/5
f 642/4/5 640/4/5 639/4/5
f 643/4/5 640/4/5 642/4/5
f 646/4/5 645/4/5 644/4/5
f 647/4/5 645/4/5 646/4/5
f 648/4/5 645/4/5 647/4/5
f 649/4/5 645/4/5 648/4/5
f 651/4/5 646/4/5 644/4/5
f 652/4/5 646/4/5 651/4/5
f 653/4/5 651/4/5 650/4/5
f 655/4/5 653/4/5 650/4/5
f 655/4/5 654/4/5 653/4/5
f 656/4/5 654/4/5 655/4/5
f 657/4/5 654/4/5 656/4/5
f 658/4/5 654/4/5 657/4/5
f 661/4/5 645/4/5 649/4/5
f 662/4/5 645/4/5 661/4/5
f 663/4/5 659/4/5 658/4/5
f 664/4/5 659/4/5 663/4/5
f 666/4/5 661/4/5 660/4/5
f 667/4/5 661/4/5 666/4/5
f 668/4/5 666/4/5 665/4/5
f 669/4/5 666/4/5 668/4/5
f 674/4/5 671/4/5 670/4/5
f 675/4/5 671/4/5 674/4/5
f 678/4/5 677/4/5 676/4/5
f 679/4/5 677/4/5 678/4/5
f 682/4/5 673/4/5 672/4/5
f 683/4/5 673/4/5 682/4/5
f 684/4/5 680/4/5 679/4/5
f 685/4/5 680/4/5 684/4/5
f 688/4/5 682/4/5 681/4/5
f 689/4/5 682/4/5 688/4/5
f 690/4/5 686/4/5 685/4/5
f 691/4/5 686/4/5 690/4/5
f 692/4/5 688/4/5 687/4/5
f 693/4/5 688/4/5 692/4/5
f 696/4/5 695/4/5 694/4/5
f 697/4/5 695/4/5 696/4/5
f 702/4/5 699/4/5 698/4/5
f 703/4/5 699/4/5 702/4/5
f 706/4/5 701/4/5 700/4/5
f 707/4/5 701/4/5 706/4/5
f 708/4/5 704/4/5 703/4/5
f 709/4/5 704/4/5 708/4/5
f 712/4/5 706/4/5 705/4/5
f 713/4/5 706/4/5 712/4/5
f 714/4/5 711/4/5 710/4/5
f 715/4/5 711/4/5 714/4/5
f 720/4/5 717/4/5 716/4/5
f 721/4/5 717/4/5 720/4/5
f 723/4/5 719/4/5 718/4/5
f 724/4/5 719/4/5 723/4/5
f 725/4/5 723/4/5 722/4/5
f 726/4/5 723/4/5 725/4/5
f 727/4/6 728/4/6 729/4/6
f 729/4/6 728/4/6 730/4/6
f 731/4/6 732/4/6 733/4/6
f 733/4/6 732/4/6 734/4/6
f 735/4/6 736/4/6 739/4/6
f 739/4/6 736/4/6 740/4/6
f 737/4/6 738/4/6 742/4/6
f 742/4/6 738/4/6 743/4/6
f 741/4/6 742/4/6 744/4/6
f 744/4/6 742/4/6 745/4/6
f 746/4/6 747/4/6 751/4/6
f 751/4/6 747/4/6 752/4/6
f 748/4/6 749/4/6 753/4/6
f 753/4/6 749/4/6 754/4/6
f 750/4/6 751/4/6 756/4/6
f 756/4/6 751/4/6 757/4/6
f 754/4/6 755/4/6 760/4/6
f 760/4/6 755/4/6 761/4/6
f 757/4/6 758/4/6 762/4/6
f 762/4/6 758/4/6 763/4/6
f 759/4/6 760/4/6 766/4/6
f 766/4/6 760/4/6 767/4/6
f 764/4/6 765/4/6 768/4/6
f 768/4/6 765/4/6 769/4/6
f 770/4/6 771/4/6 773/4/6
f 773/4/6 771/4/6 774/4/6
f 774/4/6 771/4/6 775/4/6
f 775/4/6 771/4/6 776/4/6
f 772/4/6 773/4/6 778/4/6
f 773/4/6 774/4/6 778/4/6
f 778/4/6 774/4/6 779/4/6
f 776/4/6 777/4/6 781/4/6
f 775/4/6 776/4/6 781/4/6
f 781/4/6 777/4/6 782/4/6
f 772/4/6 778/4/6 783/4/6
f 779/4/6 780/4/6 784/4/6
f 784/4/6 780/4/6 785/4/6
f 782/4/6 777/4/6 787/4/6
f 787/4/6 777/4/6 788/4/6
f 785/4/6 786/4/6 791/4/6
f 783/4/6 784/4/6 791/4/6
f 784/4/6 785/4/6 791/4/6
f 791/4/6 786/4/6 792/4/6
f 789/4/6 790/4/6 793/4/6
f 783/4/6 791/4/6 794/4/6
f 792/4/6 793/4/6 795/4/6
f 772/4/6 783/4/6 796/4/6
f 794/4/6 795/4/6 796/4/6
f 783/4/6 794/4/6 796/4/6
f 796/4/6 795/4/6 797/4/6
f 795/4/6 793/4/6 798/4/6
f 797/4/6 795/4/6 798/4/6
f 793/4/6 790/4/6 798/4/6
f 798/4/6 790/4/6 799/4/6
f 797/4/6 798/4/6 800/4/6
f 800/4/6 798/4/6 801/4/6
f 802/1/6 803/1/6 805/1/6
f 805/1/6 803/1/6 806/1/6
f 806/1/6 803/1/6 807/1/6
f 804/1/6 805/1/6 809/1/6
f 809/1/6 805/1/6 810/1/6
f 807/1/6 808/1/6 811/1/6
f 811/1/6 808/1/6 812/1/6
f 812/1/6 813/1/6 815/1/6
f 815/1/6 813/1/6 816/1/6
f 814/1/6 815/1/6 818/1/6
f 818/1/6 815/1/6 819/1/6
f 817/1/6 818/1/6 820/1/6
f 820/1/6 818/1/6 821/1/6
f 822/1/6 823/1/6 824/1/6
f 824/1/6 823/1/6 825/1/6
f 825/1/6 826/1/6 827/1/6
f 827/1/6 826/1/6 828/1/6
