# MagicaVoxel @ Ephtracy

# material
mtllib monster-evil.mtl
usemtl palette

# normals
vn -1 0 0
vn 1 0 0
vn 0 0 1
vn 0 0 -1
vn 0 -1 0
vn 0 1 0

# texcoords
vt 0.0566406 0.5
vt 0.857422 0.5
vt 0.958984 0.5
vt 0.982422 0.5
vt 0.994141 0.5

# verts
v -5 6 2
v -5 6 -0
v -5 7 4
v -5 7 2
v -5 7 -0
v -5 7 -1
v -5 8 -1
v -5 8 -2
v -5 12 4
v -5 12 -2
v -4 5 2
v -4 5 1
v -4 6 5
v -4 6 2
v -4 6 1
v -4 6 -0
v -4 6 -1
v -4 7 5
v -4 7 4
v -4 7 2
v -4 7 -0
v -4 7 -1
v -4 7 -2
v -4 8 5
v -4 8 4
v -4 8 -1
v -4 8 -2
v -4 8 -3
v -4 9 5
v -4 9 4
v -4 10 5
v -4 10 4
v -4 11 5
v -4 11 4
v -4 12 5
v -4 12 4
v -4 12 -2
v -4 12 -3
v -4 13 4
v -4 13 -2
v -3 4 2
v -3 4 1
v -3 5 4
v -3 5 2
v -3 5 1
v -3 5 -1
v -3 6 4
v -3 6 2
v -3 6 1
v -3 6 -1
v -3 6 -2
v -3 7 -1
v -3 7 -2
v -3 7 -3
v -3 8 -2
v -3 8 -3
v -3 9 -3
v -3 9 -4
v -3 11 -3
v -3 11 -4
v -3 12 5
v -3 12 4
v -3 12 -2
v -3 12 -3
v -3 13 5
v -3 13 4
v -3 13 -2
v -3 13 -3
v -2 3 1
v -2 3 -0
v -2 4 3
v -2 4 2
v -2 4 1
v -2 4 -0
v -2 4 -1
v -2 5 3
v -2 5 2
v -2 5 1
v -2 5 -1
v -2 5 -2
v -2 6 -1
v -2 6 -2
v -2 11 -3
v -2 11 -4
v -2 12 -3
v -2 12 -4
v -2 13 3
v -2 13 2
v -2 13 -1
v -2 13 -2
v -2 14 3
v -2 14 2
v -2 14 -1
v -2 14 -2
v -1 1 2
v -1 1 1
v -1 2 2
v -1 2 1
v -1 2 -0
v -1 3 2
v -1 3 1
v -1 3 -0
v -1 3 -1
v -1 4 2
v -1 4 1
v -1 4 -0
v -1 4 -1
v -1 6 -2
v -1 6 -3
v -1 7 -2
v -1 7 -3
v -1 8 -3
v -1 8 -4
v -1 9 -3
v -1 9 -4
v -1 13 2
v -1 13 1
v -1 13 -0
v -1 13 -1
v -1 14 2
v -1 14 1
v -1 14 -0
v -1 14 -1
v 0 0 1
v 0 0 -0
v 0 1 1
v 0 1 -0
v 0 9 -4
v 0 9 -5
v 0 11 -4
v 0 11 -5
v 0 13 1
v 0 13 -0
v 0 14 1
v 0 14 -0
v 1 13 2
v 1 13 1
v 1 13 -0
v 1 13 -1
v 1 14 2
v 1 14 1
v 1 14 -0
v 1 14 -1
v 2 13 3
v 2 13 2
v 2 13 -1
v 2 13 -2
v 2 14 3
v 2 14 2
v 2 14 -1
v 2 14 -2
v -1 13 3
v -1 13 2
v -1 13 -1
v -1 13 -2
v -1 14 3
v -1 14 2
v -1 14 -1
v -1 14 -2
v 0 1 2
v 0 1 1
v 0 2 2
v 0 2 1
v 0 3 -0
v 0 3 -1
v 0 4 -0
v 0 4 -1
v 0 13 2
v 0 13 1
v 0 13 -0
v 0 13 -1
v 0 14 2
v 0 14 1
v 0 14 -0
v 0 14 -1
v 1 0 1
v 1 0 -0
v 1 1 1
v 1 1 -0
v 1 2 1
v 1 2 -0
v 1 3 2
v 1 3 1
v 1 3 -0
v 1 4 3
v 1 4 2
v 1 4 1
v 1 4 -0
v 1 4 -1
v 1 5 3
v 1 5 2
v 1 5 -0
v 1 5 -1
v 1 13 1
v 1 13 -0
v 1 14 1
v 1 14 -0
v 2 3 1
v 2 3 -0
v 2 4 2
v 2 4 1
v 2 4 -0
v 2 5 4
v 2 5 3
v 2 5 2
v 2 5 1
v 2 5 -1
v 2 5 -2
v 2 6 4
v 2 6 3
v 2 6 -1
v 2 6 -2
v 2 6 -3
v 2 7 -2
v 2 7 -3
v 2 8 -3
v 2 8 -4
v 2 9 -3
v 2 9 -4
v 2 9 -5
v 2 11 -3
v 2 11 -4
v 2 11 -5
v 2 12 -3
v 2 12 -4
v 2 13 2
v 2 13 1
v 2 13 -0
v 2 13 -1
v 2 14 2
v 2 14 1
v 2 14 -0
v 2 14 -1
v 3 4 1
v 3 4 -0
v 3 5 3
v 3 5 1
v 3 5 -0
v 3 5 -1
v 3 6 3
v 3 6 -1
v 3 6 -2
v 3 7 -1
v 3 7 -2
v 3 7 -3
v 3 8 -2
v 3 8 -3
v 3 9 -3
v 3 9 -4
v 3 11 -3
v 3 11 -4
v 3 12 5
v 3 12 4
v 3 12 -2
v 3 12 -3
v 3 13 5
v 3 13 4
v 3 13 3
v 3 13 2
v 3 13 -1
v 3 13 -2
v 3 13 -3
v 3 14 3
v 3 14 2
v 3 14 -1
v 3 14 -2
v 4 6 5
v 4 6 -1
v 4 7 5
v 4 7 4
v 4 7 3
v 4 7 -1
v 4 7 -2
v 4 8 5
v 4 8 4
v 4 8 3
v 4 8 -1
v 4 8 -2
v 4 8 -3
v 4 9 5
v 4 9 4
v 4 10 5
v 4 10 4
v 4 11 5
v 4 11 4
v 4 12 5
v 4 12 4
v 4 12 -2
v 4 12 -3
v 4 13 4
v 4 13 -2
v 5 7 3
v 5 7 -1
v 5 8 4
v 5 8 3
v 5 8 -1
v 5 8 -2
v 5 12 4
v 5 12 -2
v -4 6 5
v -4 7 5
v -4 8 5
v -4 9 5
v -4 10 5
v -4 11 5
v -4 12 5
v -3 9 5
v -3 10 5
v -3 11 5
v -3 12 5
v -3 13 5
v -2 7 5
v -2 8 5
v -2 9 5
v -2 10 5
v -2 11 5
v -1 9 5
v -1 10 5
v -1 11 5
v 1 9 5
v 1 10 5
v 1 11 5
v 2 7 5
v 2 8 5
v 2 9 5
v 2 10 5
v 2 11 5
v 3 9 5
v 3 10 5
v 3 11 5
v 3 12 5
v 3 13 5
v 4 6 5
v 4 7 5
v 4 8 5
v 4 9 5
v 4 10 5
v 4 11 5
v 4 12 5
v -5 7 4
v -5 12 4
v -4 7 4
v -4 8 4
v -4 9 4
v -4 10 4
v -4 11 4
v -4 12 4
v -4 13 4
v -3 5 4
v -3 6 4
v -3 12 4
v -3 13 4
v 2 5 4
v 2 6 4
v 3 12 4
v 3 13 4
v 4 8 4
v 4 9 4
v 4 10 4
v 4 11 4
v 4 12 4
v 4 13 4
v 5 8 4
v 5 12 4
v -2 4 3
v -2 5 3
v -2 13 3
v -2 14 3
v -1 13 3
v -1 14 3
v 1 4 3
v 1 5 3
v 2 5 3
v 2 6 3
v 2 13 3
v 2 14 3
v 3 5 3
v 3 6 3
v 3 13 3
v 3 14 3
v 4 7 3
v 4 8 3
v 5 7 3
v 5 8 3
v -5 6 2
v -5 7 2
v -4 5 2
v -4 6 2
v -4 7 2
v -3 4 2
v -3 5 2
v -3 6 2
v -2 4 2
v -2 5 2
v -1 1 2
v -1 2 2
v -1 3 2
v -1 4 2
v -1 13 2
v -1 14 2
v 0 1 2
v 0 2 2
v 0 13 2
v 0 14 2
v 1 3 2
v 1 4 2
v 1 5 2
v 1 13 2
v 1 14 2
v 2 4 2
v 2 5 2
v 2 13 2
v 2 14 2
v -2 3 1
v -2 4 1
v -1 2 1
v -1 3 1
v -1 4 1
v 0 0 1
v 0 1 1
v 0 2 1
v 0 13 1
v 0 14 1
v 1 0 1
v 1 1 1
v 1 2 1
v 1 3 1
v 1 4 1
v 1 13 1
v 1 14 1
v 2 3 1
v 2 4 1
v 2 5 1
v 3 4 1
v 3 5 1
v -1 13 -0
v -1 14 -0
v 0 13 -0
v 0 14 -0
v 1 13 -0
v 1 14 -0
v 2 13 -0
v 2 14 -0
v -2 13 -1
v -2 14 -1
v -1 13 -1
v -1 14 -1
v 2 13 -1
v 2 14 -1
v 3 13 -1
v 3 14 -1
v -2 13 2
v -2 14 2
v -1 13 2
v -1 14 2
v 2 13 2
v 2 14 2
v 3 13 2
v 3 14 2
v -4 5 1
v -4 6 1
v -3 4 1
v -3 5 1
v -3 6 1
v -2 4 1
v -2 5 1
v -1 1 1
v -1 2 1
v -1 13 1
v -1 14 1
v 0 1 1
v 0 2 1
v 0 13 1
v 0 14 1
v 1 13 1
v 1 14 1
v 2 13 1
v 2 14 1
v -5 6 -0
v -5 7 -0
v -4 6 -0
v -4 7 -0
v -2 3 -0
v -2 4 -0
v -1 2 -0
v -1 3 -0
v -1 4 -0
v 0 0 -0
v 0 1 -0
v 0 3 -0
v 0 4 -0
v 0 13 -0
v 0 14 -0
v 1 0 -0
v 1 1 -0
v 1 2 -0
v 1 3 -0
v 1 4 -0
v 1 5 -0
v 1 13 -0
v 1 14 -0
v 2 3 -0
v 2 4 -0
v 3 4 -0
v 3 5 -0
v -5 7 -1
v -5 8 -1
v -4 6 -1
v -4 7 -1
v -4 8 -1
v -3 5 -1
v -3 6 -1
v -3 7 -1
v -2 4 -1
v -2 5 -1
v -2 6 -1
v -1 3 -1
v -1 4 -1
v -1 13 -1
v -1 14 -1
v 0 3 -1
v 0 4 -1
v 0 13 -1
v 0 14 -1
v 1 4 -1
v 1 5 -1
v 1 13 -1
v 1 14 -1
v 2 5 -1
v 2 6 -1
v 2 13 -1
v 2 14 -1
v 3 5 -1
v 3 6 -1
v 3 7 -1
v 4 6 -1
v 4 7 -1
v 4 8 -1
v 5 7 -1
v 5 8 -1
v -5 8 -2
v -5 12 -2
v -4 7 -2
v -4 8 -2
v -4 12 -2
v -4 13 -2
v -3 6 -2
v -3 7 -2
v -3 8 -2
v -3 12 -2
v -3 13 -2
v -2 5 -2
v -2 6 -2
v -2 13 -2
v -2 14 -2
v -1 6 -2
v -1 7 -2
v -1 13 -2
v -1 14 -2
v 2 5 -2
v 2 6 -2
v 2 7 -2
v 2 13 -2
v 2 14 -2
v 3 6 -2
v 3 7 -2
v 3 8 -2
v 3 12 -2
v 3 13 -2
v 3 14 -2
v 4 7 -2
v 4 8 -2
v 4 12 -2
v 4 13 -2
v 5 8 -2
v 5 12 -2
v -4 8 -3
v -4 12 -3
v -3 7 -3
v -3 8 -3
v -3 9 -3
v -3 11 -3
v -3 12 -3
v -3 13 -3
v -2 11 -3
v -2 12 -3
v -1 6 -3
v -1 7 -3
v -1 8 -3
v -1 9 -3
v 2 6 -3
v 2 7 -3
v 2 8 -3
v 2 9 -3
v 2 11 -3
v 2 12 -3
v 3 7 -3
v 3 8 -3
v 3 9 -3
v 3 11 -3
v 3 12 -3
v 3 13 -3
v 4 8 -3
v 4 12 -3
v -3 9 -4
v -3 11 -4
v -2 11 -4
v -2 12 -4
v -1 8 -4
v -1 9 -4
v 0 9 -4
v 0 11 -4
v 2 8 -4
v 2 9 -4
v 2 11 -4
v 2 12 -4
v 3 9 -4
v 3 11 -4
v 0 9 -5
v 0 11 -5
v 2 9 -5
v 2 11 -5
v 0 0 1
v 1 0 1
v 0 0 -0
v 1 0 -0
v -1 1 2
v 0 1 2
v -1 1 1
v 0 1 1
v -1 2 1
v 0 2 1
v 1 2 1
v -1 2 -0
v 1 2 -0
v -1 3 2
v 1 3 2
v -2 3 1
v -1 3 1
v 1 3 1
v 2 3 1
v -2 3 -0
v -1 3 -0
v 0 3 -0
v 1 3 -0
v 2 3 -0
v -1 3 -1
v 0 3 -1
v -2 4 3
v 1 4 3
v -3 4 2
v -2 4 2
v -1 4 2
v 1 4 2
v 2 4 2
v -3 4 1
v -2 4 1
v -1 4 1
v 1 4 1
v 2 4 1
v 3 4 1
v -2 4 -0
v -1 4 -0
v 0 4 -0
v 1 4 -0
v 2 4 -0
v 3 4 -0
v -2 4 -1
v -1 4 -1
v 0 4 -1
v 1 4 -1
v -3 5 4
v 2 5 4
v -2 5 3
v 1 5 3
v 2 5 3
v 3 5 3
v -4 5 2
v -3 5 2
v -2 5 2
v 1 5 2
v 2 5 2
v -4 5 1
v -3 5 1
v -2 5 1
v 2 5 1
v 3 5 1
v 1 5 -0
v 3 5 -0
v -3 5 -1
v -2 5 -1
v 1 5 -1
v 2 5 -1
v 3 5 -1
v -2 5 -2
v 2 5 -2
v -4 6 5
v 4 6 5
v -3 6 4
v 2 6 4
v 2 6 3
v 3 6 3
v -5 6 2
v -4 6 2
v -3 6 2
v -4 6 1
v -3 6 1
v -5 6 -0
v -4 6 -0
v -4 6 -1
v -3 6 -1
v -2 6 -1
v 2 6 -1
v 3 6 -1
v 4 6 -1
v -3 6 -2
v -2 6 -2
v -1 6 -2
v 2 6 -2
v 3 6 -2
v -1 6 -3
v 2 6 -3
v -5 7 4
v -4 7 4
v 4 7 3
v 5 7 3
v -5 7 2
v -4 7 2
v -5 7 -0
v -4 7 -0
v -5 7 -1
v -4 7 -1
v -3 7 -1
v 3 7 -1
v 4 7 -1
v 5 7 -1
v -4 7 -2
v -3 7 -2
v -1 7 -2
v 2 7 -2
v 3 7 -2
v 4 7 -2
v -3 7 -3
v -1 7 -3
v 2 7 -3
v 3 7 -3
v 4 8 4
v 5 8 4
v 4 8 3
v 5 8 3
v -5 8 -1
v -4 8 -1
v 4 8 -1
v 5 8 -1
v -5 8 -2
v -4 8 -2
v -3 8 -2
v 3 8 -2
v 4 8 -2
v 5 8 -2
v -4 8 -3
v -3 8 -3
v -1 8 -3
v 2 8 -3
v 3 8 -3
v 4 8 -3
v -1 8 -4
v 2 8 -4
v -3 9 -3
v -1 9 -3
v 2 9 -3
v 3 9 -3
v -3 9 -4
v -1 9 -4
v 0 9 -4
v 2 9 -4
v 3 9 -4
v 0 9 -5
v 2 9 -5
v 0 1 1
v 1 1 1
v 0 1 -0
v 1 1 -0
v -1 2 2
v 0 2 2
v -1 2 1
v 0 2 1
v -3 11 -3
v -2 11 -3
v 2 11 -3
v 3 11 -3
v -3 11 -4
v -2 11 -4
v 0 11 -4
v 2 11 -4
v 3 11 -4
v 0 11 -5
v 2 11 -5
v -4 12 5
v -3 12 5
v 3 12 5
v 4 12 5
v -5 12 4
v -4 12 4
v -3 12 4
v 3 12 4
v 4 12 4
v 5 12 4
v -5 12 -2
v -4 12 -2
v -3 12 -2
v 3 12 -2
v 4 12 -2
v 5 12 -2
v -4 12 -3
v -3 12 -3
v -2 12 -3
v 2 12 -3
v 3 12 -3
v 4 12 -3
v -2 12 -4
v 2 12 -4
v -3 13 5
v 3 13 5
v -4 13 4
v -3 13 4
v 3 13 4
v 4 13 4
v -2 13 3
v -1 13 3
v 2 13 3
v 3 13 3
v -2 13 2
v -1 13 2
v 0 13 2
v 1 13 2
v 2 13 2
v 3 13 2
v -1 13 1
v 0 13 1
v 1 13 1
v 2 13 1
v -1 13 -0
v 0 13 -0
v 1 13 -0
v 2 13 -0
v -2 13 -1
v -1 13 -1
v 0 13 -1
v 1 13 -1
v 2 13 -1
v 3 13 -1
v -4 13 -2
v -3 13 -2
v -2 13 -2
v -1 13 -2
v 2 13 -2
v 3 13 -2
v 4 13 -2
v -3 13 -3
v 3 13 -3
v -2 14 3
v -1 14 3
v 2 14 3
v 3 14 3
v -2 14 2
v -1 14 2
v 0 14 2
v 1 14 2
v 2 14 2
v 3 14 2
v -1 14 1
v 0 14 1
v 1 14 1
v 2 14 1
v -1 14 -0
v 0 14 -0
v 1 14 -0
v 2 14 -0
v -2 14 -1
v -1 14 -1
v 0 14 -1
v 1 14 -1
v 2 14 -1
v 3 14 -1
v -2 14 -2
v -1 14 -2
v 2 14 -2
v 3 14 -2

# faces
f 4/5/1 2/5/1 1/5/1
f 5/5/1 2/5/1 4/5/1
f 7/5/1 4/5/1 3/5/1
f 7/5/1 6/5/1 5/5/1
f 7/5/1 5/5/1 4/5/1
f 9/5/1 7/5/1 3/5/1
f 9/5/1 8/5/1 7/5/1
f 10/5/1 8/5/1 9/5/1
f 14/5/1 12/5/1 11/5/1
f 15/5/1 12/5/1 14/5/1
f 18/5/1 14/5/1 13/5/1
f 19/5/1 14/5/1 18/5/1
f 20/5/1 14/5/1 19/5/1
f 21/5/1 17/5/1 16/5/1
f 22/5/1 17/5/1 21/5/1
f 24/1/1 19/1/1 18/1/1
f 25/1/1 19/1/1 24/1/1
f 26/5/1 23/5/1 22/5/1
f 27/5/1 23/5/1 26/5/1
f 29/5/1 25/5/1 24/5/1
f 30/5/1 25/5/1 29/5/1
f 31/3/1 30/3/1 29/3/1
f 32/3/1 30/3/1 31/3/1
f 33/4/1 32/4/1 31/4/1
f 34/4/1 32/4/1 33/4/1
f 35/5/1 34/5/1 33/5/1
f 36/5/1 34/5/1 35/5/1
f 37/5/1 28/5/1 27/5/1
f 38/5/1 28/5/1 37/5/1
f 39/5/1 37/5/1 36/5/1
f 40/5/1 37/5/1 39/5/1
f 44/5/1 42/5/1 41/5/1
f 45/5/1 42/5/1 44/5/1
f 47/5/1 44/5/1 43/5/1
f 48/5/1 44/5/1 47/5/1
f 49/5/1 46/5/1 45/5/1
f 50/5/1 46/5/1 49/5/1
f 52/5/1 51/5/1 50/5/1
f 53/5/1 51/5/1 52/5/1
f 55/5/1 54/5/1 53/5/1
f 56/5/1 54/5/1 55/5/1
f 59/5/1 58/5/1 57/5/1
f 60/5/1 58/5/1 59/5/1
f 65/5/1 62/5/1 61/5/1
f 66/5/1 62/5/1 65/5/1
f 67/5/1 64/5/1 63/5/1
f 68/5/1 64/5/1 67/5/1
f 73/5/1 70/5/1 69/5/1
f 74/5/1 70/5/1 73/5/1
f 76/5/1 72/5/1 71/5/1
f 77/5/1 72/5/1 76/5/1
f 78/5/1 75/5/1 74/5/1
f 78/5/1 74/5/1 73/5/1
f 79/5/1 75/5/1 78/5/1
f 81/5/1 80/5/1 79/5/1
f 82/5/1 80/5/1 81/5/1
f 85/5/1 84/5/1 83/5/1
f 86/5/1 84/5/1 85/5/1
f 91/2/1 88/2/1 87/2/1
f 92/2/1 88/2/1 91/2/1
f 93/2/1 90/2/1 89/2/1
f 94/2/1 90/2/1 93/2/1
f 97/5/1 96/5/1 95/5/1
f 98/5/1 96/5/1 97/5/1
f 101/5/1 99/5/1 98/5/1
f 102/5/1 99/5/1 101/5/1
f 104/5/1 101/5/1 100/5/1
f 105/5/1 101/5/1 104/5/1
f 106/5/1 103/5/1 102/5/1
f 107/5/1 103/5/1 106/5/1
f 110/5/1 109/5/1 108/5/1
f 111/5/1 109/5/1 110/5/1
f 114/5/1 113/5/1 112/5/1
f 115/5/1 113/5/1 114/5/1
f 120/2/1 117/2/1 116/2/1
f 121/2/1 117/2/1 120/2/1
f 122/2/1 119/2/1 118/2/1
f 123/2/1 119/2/1 122/2/1
f 126/5/1 125/5/1 124/5/1
f 127/5/1 125/5/1 126/5/1
f 130/5/1 129/5/1 128/5/1
f 131/5/1 129/5/1 130/5/1
f 134/2/1 133/2/1 132/2/1
f 135/2/1 133/2/1 134/2/1
f 140/2/1 137/2/1 136/2/1
f 141/2/1 137/2/1 140/2/1
f 142/2/1 139/2/1 138/2/1
f 143/2/1 139/2/1 142/2/1
f 148/2/1 145/2/1 144/2/1
f 149/2/1 145/2/1 148/2/1
f 150/2/1 147/2/1 146/2/1
f 151/2/1 147/2/1 150/2/1
f 152/2/2 153/2/2 156/2/2
f 156/2/2 153/2/2 157/2/2
f 154/2/2 155/2/2 158/2/2
f 158/2/2 155/2/2 159/2/2
f 160/5/2 161/5/2 162/5/2
f 162/5/2 161/5/2 163/5/2
f 164/5/2 165/5/2 166/5/2
f 166/5/2 165/5/2 167/5/2
f 168/2/2 169/2/2 172/2/2
f 172/2/2 169/2/2 173/2/2
f 170/2/2 171/2/2 174/2/2
f 174/2/2 171/2/2 175/2/2
f 176/5/2 177/5/2 178/5/2
f 178/5/2 177/5/2 179/5/2
f 180/5/2 181/5/2 183/5/2
f 183/5/2 181/5/2 184/5/2
f 182/5/2 183/5/2 186/5/2
f 186/5/2 183/5/2 187/5/2
f 185/5/2 186/5/2 190/5/2
f 190/5/2 186/5/2 191/5/2
f 188/5/2 189/5/2 192/5/2
f 192/5/2 189/5/2 193/5/2
f 194/2/2 195/2/2 196/2/2
f 196/2/2 195/2/2 197/2/2
f 198/5/2 199/5/2 201/5/2
f 201/5/2 199/5/2 202/5/2
f 200/5/2 201/5/2 205/5/2
f 205/5/2 201/5/2 206/5/2
f 203/5/2 204/5/2 209/5/2
f 209/5/2 204/5/2 210/5/2
f 207/5/2 208/5/2 211/5/2
f 211/5/2 208/5/2 212/5/2
f 212/5/2 213/5/2 214/5/2
f 214/5/2 213/5/2 215/5/2
f 216/5/2 217/5/2 218/5/2
f 218/5/2 217/5/2 219/5/2
f 219/5/2 220/5/2 222/5/2
f 222/5/2 220/5/2 223/5/2
f 221/5/2 222/5/2 224/5/2
f 224/5/2 222/5/2 225/5/2
f 226/2/2 227/2/2 230/2/2
f 230/2/2 227/2/2 231/2/2
f 228/2/2 229/2/2 232/2/2
f 232/2/2 229/2/2 233/2/2
f 234/5/2 235/5/2 237/5/2
f 237/5/2 235/5/2 238/5/2
f 236/5/2 237/5/2 240/5/2
f 238/5/2 239/5/2 240/5/2
f 237/5/2 238/5/2 240/5/2
f 240/5/2 239/5/2 241/5/2
f 241/5/2 242/5/2 243/5/2
f 243/5/2 242/5/2 244/5/2
f 244/5/2 245/5/2 246/5/2
f 246/5/2 245/5/2 247/5/2
f 248/5/2 249/5/2 250/5/2
f 250/5/2 249/5/2 251/5/2
f 252/5/2 253/5/2 256/5/2
f 256/5/2 253/5/2 257/5/2
f 254/5/2 255/5/2 261/5/2
f 261/5/2 255/5/2 262/5/2
f 258/2/2 259/2/2 263/2/2
f 263/2/2 259/2/2 264/2/2
f 260/2/2 261/2/2 265/2/2
f 265/2/2 261/2/2 266/2/2
f 267/5/2 268/5/2 269/5/2
f 269/5/2 268/5/2 270/5/2
f 270/5/2 268/5/2 271/5/2
f 271/5/2 268/5/2 272/5/2
f 269/1/2 270/1/2 274/1/2
f 270/5/2 271/5/2 275/5/2
f 274/1/2 270/1/2 275/1/2
f 275/5/2 271/5/2 276/5/2
f 272/5/2 273/5/2 277/5/2
f 277/5/2 273/5/2 278/5/2
f 274/5/2 275/5/2 280/5/2
f 280/5/2 275/5/2 281/5/2
f 280/3/2 281/3/2 282/3/2
f 282/3/2 281/3/2 283/3/2
f 282/4/2 283/4/2 284/4/2
f 284/4/2 283/4/2 285/4/2
f 284/5/2 285/5/2 286/5/2
f 286/5/2 285/5/2 287/5/2
f 278/5/2 279/5/2 288/5/2
f 288/5/2 279/5/2 289/5/2
f 287/5/2 288/5/2 290/5/2
f 290/5/2 288/5/2 291/5/2
f 292/5/2 293/5/2 295/5/2
f 295/5/2 293/5/2 296/5/2
f 294/5/2 295/5/2 298/5/2
f 296/5/2 297/5/2 298/5/2
f 295/5/2 296/5/2 298/5/2
f 298/5/2 297/5/2 299/5/2
f 307/5/3 303/5/3 302/5/3
f 307/3/3 304/3/3 303/3/3
f 308/4/3 305/4/3 304/4/3
f 308/3/3 304/3/3 307/3/3
f 309/5/3 306/5/3 305/5/3
f 309/4/3 305/4/3 308/4/3
f 310/5/3 306/5/3 309/5/3
f 312/5/3 301/5/3 300/5/3
f 312/1/3 302/1/3 301/1/3
f 313/5/3 308/5/3 307/5/3
f 313/1/3 302/1/3 312/1/3
f 313/5/3 307/5/3 302/5/3
f 314/5/3 308/5/3 313/5/3
f 315/3/3 309/3/3 308/3/3
f 315/5/3 308/5/3 314/5/3
f 316/5/3 311/5/3 310/5/3
f 316/3/3 309/3/3 315/3/3
f 316/5/3 310/5/3 309/5/3
f 317/3/3 315/3/3 314/3/3
f 317/5/3 313/5/3 312/5/3
f 317/5/3 314/5/3 313/5/3
f 318/4/3 316/4/3 315/4/3
f 318/3/3 315/3/3 317/3/3
f 319/5/3 311/5/3 316/5/3
f 319/4/3 316/4/3 318/4/3
f 320/5/3 318/5/3 317/5/3
f 320/5/3 317/5/3 312/5/3
f 320/5/3 319/5/3 318/5/3
f 321/5/3 319/5/3 320/5/3
f 322/5/3 311/5/3 319/5/3
f 322/5/3 319/5/3 321/5/3
f 323/5/3 312/5/3 300/5/3
f 323/5/3 320/5/3 312/5/3
f 324/5/3 320/5/3 323/5/3
f 325/3/3 321/3/3 320/3/3
f 325/5/3 320/5/3 324/5/3
f 326/4/3 322/4/3 321/4/3
f 326/3/3 321/3/3 325/3/3
f 327/5/3 311/5/3 322/5/3
f 327/4/3 322/4/3 326/4/3
f 328/5/3 326/5/3 325/5/3
f 328/5/3 325/5/3 324/5/3
f 329/3/3 327/3/3 326/3/3
f 329/5/3 326/5/3 328/5/3
f 330/5/3 311/5/3 327/5/3
f 330/3/3 327/3/3 329/3/3
f 331/5/3 311/5/3 330/5/3
f 332/5/3 311/5/3 331/5/3
f 333/5/3 323/5/3 300/5/3
f 334/1/3 324/1/3 323/1/3
f 334/5/3 323/5/3 333/5/3
f 335/5/3 328/5/3 324/5/3
f 335/1/3 324/1/3 334/1/3
f 336/3/3 329/3/3 328/3/3
f 336/5/3 328/5/3 335/5/3
f 337/4/3 330/4/3 329/4/3
f 337/3/3 329/3/3 336/3/3
f 338/5/3 331/5/3 330/5/3
f 338/4/3 330/4/3 337/4/3
f 339/5/3 331/5/3 338/5/3
f 342/5/3 341/5/3 340/5/3
f 343/5/3 341/5/3 342/5/3
f 344/5/3 341/5/3 343/5/3
f 345/5/3 341/5/3 344/5/3
f 346/5/3 341/5/3 345/5/3
f 347/5/3 341/5/3 346/5/3
f 351/5/3 348/5/3 347/5/3
f 352/5/3 348/5/3 351/5/3
f 353/5/3 350/5/3 349/5/3
f 354/5/3 350/5/3 353/5/3
f 361/5/3 356/5/3 355/5/3
f 362/5/3 356/5/3 361/5/3
f 363/5/3 360/5/3 359/5/3
f 363/5/3 358/5/3 357/5/3
f 363/5/3 361/5/3 360/5/3
f 363/5/3 359/5/3 358/5/3
f 364/5/3 361/5/3 363/5/3
f 369/2/3 368/2/3 367/2/3
f 370/2/3 368/2/3 369/2/3
f 371/5/3 366/5/3 365/5/3
f 372/5/3 366/5/3 371/5/3
f 377/5/3 374/5/3 373/5/3
f 378/5/3 374/5/3 377/5/3
f 379/2/3 376/2/3 375/2/3
f 380/2/3 376/2/3 379/2/3
f 383/5/3 382/5/3 381/5/3
f 384/5/3 382/5/3 383/5/3
f 388/5/3 386/5/3 385/5/3
f 389/5/3 386/5/3 388/5/3
f 391/5/3 388/5/3 387/5/3
f 392/5/3 388/5/3 391/5/3
f 393/5/3 391/5/3 390/5/3
f 394/5/3 391/5/3 393/5/3
f 401/5/3 396/5/3 395/5/3
f 402/5/3 396/5/3 401/5/3
f 403/2/3 400/2/3 399/2/3
f 404/2/3 400/2/3 403/2/3
f 405/5/3 398/5/3 397/5/3
f 406/5/3 398/5/3 405/5/3
f 410/5/3 407/5/3 406/5/3
f 411/5/3 407/5/3 410/5/3
f 412/2/3 409/2/3 408/2/3
f 413/2/3 409/2/3 412/2/3
f 417/5/3 415/5/3 414/5/3
f 418/5/3 415/5/3 417/5/3
f 421/5/3 417/5/3 416/5/3
f 424/5/3 420/5/3 419/5/3
f 425/5/3 420/5/3 424/5/3
f 426/5/3 417/5/3 421/5/3
f 427/5/3 417/5/3 426/5/3
f 429/2/3 423/2/3 422/2/3
f 430/2/3 423/2/3 429/2/3
f 431/5/3 428/5/3 427/5/3
f 432/5/3 428/5/3 431/5/3
f 434/5/3 433/5/3 432/5/3
f 435/5/3 433/5/3 434/5/3
f 438/2/3 437/2/3 436/2/3
f 439/2/3 437/2/3 438/2/3
f 442/2/3 441/2/3 440/2/3
f 443/2/3 441/2/3 442/2/3
f 446/2/3 445/2/3 444/2/3
f 447/2/3 445/2/3 446/2/3
f 450/2/3 449/2/3 448/2/3
f 451/2/3 449/2/3 450/2/3
f 452/2/4 453/2/4 454/2/4
f 454/2/4 453/2/4 455/2/4
f 456/2/4 457/2/4 458/2/4
f 458/2/4 457/2/4 459/2/4
f 460/5/4 461/5/4 463/5/4
f 463/5/4 461/5/4 464/5/4
f 462/5/4 463/5/4 465/5/4
f 465/5/4 463/5/4 466/5/4
f 467/5/4 468/5/4 471/5/4
f 471/5/4 468/5/4 472/5/4
f 469/2/4 470/2/4 473/2/4
f 473/2/4 470/2/4 474/2/4
f 475/2/4 476/2/4 477/2/4
f 477/2/4 476/2/4 478/2/4
f 479/5/4 480/5/4 481/5/4
f 481/5/4 480/5/4 482/5/4
f 483/5/4 484/5/4 486/5/4
f 486/5/4 484/5/4 487/5/4
f 485/5/4 486/5/4 490/5/4
f 488/5/4 489/5/4 494/5/4
f 494/5/4 489/5/4 495/5/4
f 490/5/4 491/5/4 496/5/4
f 485/5/4 490/5/4 496/5/4
f 496/5/4 491/5/4 497/5/4
f 497/5/4 491/5/4 498/5/4
f 492/2/4 493/2/4 500/2/4
f 500/2/4 493/2/4 501/2/4
f 498/5/4 499/5/4 502/5/4
f 497/5/4 498/5/4 502/5/4
f 502/5/4 499/5/4 503/5/4
f 503/5/4 499/5/4 504/5/4
f 504/5/4 499/5/4 505/5/4
f 506/5/4 507/5/4 509/5/4
f 509/5/4 507/5/4 510/5/4
f 508/5/4 509/5/4 512/5/4
f 512/5/4 509/5/4 513/5/4
f 511/5/4 512/5/4 515/5/4
f 515/5/4 512/5/4 516/5/4
f 514/5/4 515/5/4 518/5/4
f 517/5/4 518/5/4 521/5/4
f 518/5/4 515/5/4 522/5/4
f 521/5/4 518/5/4 522/5/4
f 519/2/4 520/2/4 523/2/4
f 523/2/4 520/2/4 524/2/4
f 522/5/4 515/5/4 525/5/4
f 525/5/4 515/5/4 526/5/4
f 527/2/4 528/2/4 531/2/4
f 531/2/4 528/2/4 532/2/4
f 529/5/4 530/5/4 533/5/4
f 533/5/4 530/5/4 534/5/4
f 534/5/4 535/5/4 536/5/4
f 536/5/4 535/5/4 537/5/4
f 537/5/4 538/5/4 539/5/4
f 539/5/4 538/5/4 540/5/4
f 541/5/4 542/5/4 544/5/4
f 544/5/4 542/5/4 545/5/4
f 543/5/4 544/5/4 548/5/4
f 548/5/4 544/5/4 549/5/4
f 545/5/4 546/5/4 550/5/4
f 550/5/4 546/5/4 551/5/4
f 547/5/4 548/5/4 553/5/4
f 552/5/4 553/5/4 556/5/4
f 553/5/4 548/5/4 556/5/4
f 556/5/4 548/5/4 557/5/4
f 554/2/4 555/2/4 558/2/4
f 558/2/4 555/2/4 559/2/4
f 552/5/4 556/5/4 560/5/4
f 560/5/4 556/5/4 561/5/4
f 561/5/4 562/5/4 565/5/4
f 565/5/4 562/5/4 566/5/4
f 563/2/4 564/2/4 569/2/4
f 569/2/4 564/2/4 570/2/4
f 566/5/4 567/5/4 571/5/4
f 571/5/4 567/5/4 572/5/4
f 568/5/4 569/5/4 573/5/4
f 573/5/4 569/5/4 574/5/4
f 572/5/4 573/5/4 575/5/4
f 575/5/4 573/5/4 576/5/4
f 577/5/4 578/5/4 580/5/4
f 580/5/4 578/5/4 581/5/4
f 581/5/4 578/5/4 582/5/4
f 582/5/4 578/5/4 583/5/4
f 583/5/4 584/5/4 585/5/4
f 582/5/4 583/5/4 585/5/4
f 585/5/4 584/5/4 586/5/4
f 579/5/4 580/5/4 588/5/4
f 580/5/4 581/5/4 588/5/4
f 588/5/4 581/5/4 589/5/4
f 589/5/4 581/5/4 590/5/4
f 587/5/4 588/5/4 591/5/4
f 588/5/4 589/5/4 591/5/4
f 591/5/4 589/5/4 592/5/4
f 592/5/4 589/5/4 593/5/4
f 586/5/4 584/5/4 596/5/4
f 592/5/4 593/5/4 597/5/4
f 593/5/4 594/5/4 597/5/4
f 597/5/4 594/5/4 598/5/4
f 598/5/4 594/5/4 599/5/4
f 595/5/4 596/5/4 600/5/4
f 596/5/4 584/5/4 601/5/4
f 600/5/4 596/5/4 601/5/4
f 601/5/4 584/5/4 602/5/4
f 598/5/4 599/5/4 603/5/4
f 599/5/4 600/5/4 603/5/4
f 600/5/4 601/5/4 603/5/4
f 603/5/4 601/5/4 604/5/4
f 605/5/4 606/5/4 607/5/4
f 605/5/4 607/5/4 610/5/4
f 607/5/4 608/5/4 610/5/4
f 610/5/4 608/5/4 611/5/4
f 609/5/4 610/5/4 611/5/4
f 611/5/4 608/5/4 612/5/4
f 609/5/4 611/5/4 613/5/4
f 613/5/4 611/5/4 614/5/4
f 612/5/4 608/5/4 615/5/4
f 615/5/4 608/5/4 616/5/4
f 614/5/4 615/5/4 617/5/4
f 617/5/4 615/5/4 618/5/4
f 619/5/4 620/5/4 621/5/4
f 621/5/4 620/5/4 622/5/4
f 625/5/5 624/5/5 623/5/5
f 626/5/5 624/5/5 625/5/5
f 629/5/5 628/5/5 627/5/5
f 630/5/5 628/5/5 629/5/5
f 634/5/5 632/5/5 631/5/5
f 634/5/5 633/5/5 632/5/5
f 635/5/5 633/5/5 634/5/5
f 639/5/5 637/5/5 636/5/5
f 640/5/5 637/5/5 639/5/5
f 642/5/5 639/5/5 638/5/5
f 643/5/5 639/5/5 642/5/5
f 645/5/5 641/5/5 640/5/5
f 646/5/5 641/5/5 645/5/5
f 647/5/5 644/5/5 643/5/5
f 648/5/5 644/5/5 647/5/5
f 652/5/5 650/5/5 649/5/5
f 653/5/5 650/5/5 652/5/5
f 654/5/5 650/5/5 653/5/5
f 656/5/5 652/5/5 651/5/5
f 656/5/5 653/5/5 652/5/5
f 657/5/5 653/5/5 656/5/5
f 658/5/5 653/5/5 657/5/5
f 659/5/5 655/5/5 654/5/5
f 660/5/5 655/5/5 659/5/5
f 666/5/5 661/5/5 660/5/5
f 667/5/5 661/5/5 666/5/5
f 668/5/5 663/5/5 662/5/5
f 669/5/5 663/5/5 668/5/5
f 670/5/5 665/5/5 664/5/5
f 671/5/5 665/5/5 670/5/5
f 674/5/5 673/5/5 672/5/5
f 675/5/5 673/5/5 674/5/5
f 676/5/5 673/5/5 675/5/5
f 679/5/5 674/5/5 672/5/5
f 680/5/5 674/5/5 679/5/5
f 681/5/5 676/5/5 675/5/5
f 681/5/5 677/5/5 676/5/5
f 682/5/5 677/5/5 681/5/5
f 683/5/5 679/5/5 678/5/5
f 684/5/5 679/5/5 683/5/5
f 686/5/5 677/5/5 682/5/5
f 687/5/5 677/5/5 686/5/5
f 690/5/5 685/5/5 684/5/5
f 691/5/5 685/5/5 690/5/5
f 692/5/5 689/5/5 688/5/5
f 693/5/5 689/5/5 692/5/5
f 694/5/5 689/5/5 693/5/5
f 695/5/5 692/5/5 691/5/5
f 695/5/5 693/5/5 692/5/5
f 696/5/5 693/5/5 695/5/5
f 699/5/5 698/5/5 697/5/5
f 700/5/5 698/5/5 699/5/5
f 701/5/5 698/5/5 700/5/5
f 702/5/5 698/5/5 701/5/5
f 704/5/5 699/5/5 697/5/5
f 705/5/5 699/5/5 704/5/5
f 706/5/5 704/5/5 703/5/5
f 708/5/5 706/5/5 703/5/5
f 708/5/5 707/5/5 706/5/5
f 709/5/5 707/5/5 708/5/5
f 710/5/5 707/5/5 709/5/5
f 711/5/5 707/5/5 710/5/5
f 714/5/5 698/5/5 702/5/5
f 715/5/5 698/5/5 714/5/5
f 716/5/5 712/5/5 711/5/5
f 717/5/5 712/5/5 716/5/5
f 719/5/5 714/5/5 713/5/5
f 720/5/5 714/5/5 719/5/5
f 721/5/5 719/5/5 718/5/5
f 722/5/5 719/5/5 721/5/5
f 727/5/5 724/5/5 723/5/5
f 728/5/5 724/5/5 727/5/5
f 731/5/5 730/5/5 729/5/5
f 732/5/5 730/5/5 731/5/5
f 735/5/5 726/5/5 725/5/5
f 736/5/5 726/5/5 735/5/5
f 737/5/5 733/5/5 732/5/5
f 738/5/5 733/5/5 737/5/5
f 741/5/5 735/5/5 734/5/5
f 742/5/5 735/5/5 741/5/5
f 743/5/5 739/5/5 738/5/5
f 744/5/5 739/5/5 743/5/5
f 745/5/5 741/5/5 740/5/5
f 746/5/5 741/5/5 745/5/5
f 749/5/5 748/5/5 747/5/5
f 750/5/5 748/5/5 749/5/5
f 755/5/5 752/5/5 751/5/5
f 756/5/5 752/5/5 755/5/5
f 759/5/5 754/5/5 753/5/5
f 760/5/5 754/5/5 759/5/5
f 761/5/5 757/5/5 756/5/5
f 762/5/5 757/5/5 761/5/5
f 765/5/5 759/5/5 758/5/5
f 766/5/5 759/5/5 765/5/5
f 767/5/5 764/5/5 763/5/5
f 768/5/5 764/5/5 767/5/5
f 773/5/5 770/5/5 769/5/5
f 774/5/5 770/5/5 773/5/5
f 776/5/5 772/5/5 771/5/5
f 777/5/5 772/5/5 776/5/5
f 778/5/5 776/5/5 775/5/5
f 779/5/5 776/5/5 778/5/5
f 780/5/6 781/5/6 782/5/6
f 782/5/6 781/5/6 783/5/6
f 784/5/6 785/5/6 786/5/6
f 786/5/6 785/5/6 787/5/6
f 788/5/6 789/5/6 792/5/6
f 792/5/6 789/5/6 793/5/6
f 790/5/6 791/5/6 795/5/6
f 795/5/6 791/5/6 796/5/6
f 794/5/6 795/5/6 797/5/6
f 797/5/6 795/5/6 798/5/6
f 799/5/6 800/5/6 804/5/6
f 804/5/6 800/5/6 805/5/6
f 801/5/6 802/5/6 806/5/6
f 806/5/6 802/5/6 807/5/6
f 803/5/6 804/5/6 809/5/6
f 809/5/6 804/5/6 810/5/6
f 807/5/6 808/5/6 813/5/6
f 813/5/6 808/5/6 814/5/6
f 810/5/6 811/5/6 815/5/6
f 815/5/6 811/5/6 816/5/6
f 812/5/6 813/5/6 819/5/6
f 819/5/6 813/5/6 820/5/6
f 817/5/6 818/5/6 821/5/6
f 821/5/6 818/5/6 822/5/6
f 823/5/6 824/5/6 826/5/6
f 826/5/6 824/5/6 827/5/6
f 825/5/6 826/5/6 829/5/6
f 827/5/6 828/5/6 829/5/6
f 826/5/6 827/5/6 829/5/6
f 829/5/6 828/5/6 830/5/6
f 830/5/6 828/5/6 831/5/6
f 831/5/6 828/5/6 832/5/6
f 825/5/6 829/5/6 833/5/6
f 830/5/6 831/5/6 834/5/6
f 834/5/6 831/5/6 835/5/6
f 835/5/6 831/5/6 836/5/6
f 836/5/6 831/5/6 837/5/6
f 832/5/6 828/5/6 838/5/6
f 833/5/6 834/5/6 839/5/6
f 835/5/6 836/5/6 840/5/6
f 840/5/6 836/5/6 841/5/6
f 837/5/6 838/5/6 842/5/6
f 833/5/6 839/5/6 843/5/6
f 839/5/6 840/5/6 843/5/6
f 843/5/6 840/5/6 844/5/6
f 841/5/6 842/5/6 845/5/6
f 842/5/6 838/5/6 846/5/6
f 845/5/6 842/5/6 846/5/6
f 825/5/6 833/5/6 847/5/6
f 833/5/6 843/5/6 847/5/6
f 847/5/6 843/5/6 848/5/6
f 844/5/6 845/5/6 849/5/6
f 849/5/6 845/5/6 850/5/6
f 846/5/6 838/5/6 851/5/6
f 838/5/6 828/5/6 852/5/6
f 851/5/6 838/5/6 852/5/6
f 825/5/6 847/5/6 853/5/6
f 853/5/6 847/5/6 854/5/6
f 854/5/6 847/5/6 855/5/6
f 849/5/6 850/5/6 856/5/6
f 850/5/6 851/5/6 856/5/6
f 848/5/6 849/5/6 856/5/6
f 856/5/6 851/5/6 857/5/6
f 852/5/6 828/5/6 858/5/6
f 858/5/6 828/5/6 859/5/6
f 854/5/6 855/5/6 860/5/6
f 857/5/6 858/5/6 860/5/6
f 856/5/6 857/5/6 860/5/6
f 855/5/6 856/5/6 860/5/6
f 860/5/6 858/5/6 861/5/6
f 862/2/6 863/2/6 866/2/6
f 866/2/6 863/2/6 867/2/6
f 864/2/6 865/2/6 870/2/6
f 870/2/6 865/2/6 871/2/6
f 867/2/6 868/2/6 872/2/6
f 872/2/6 868/2/6 873/2/6
f 869/2/6 870/2/6 874/2/6
f 874/2/6 870/2/6 875/2/6
f 873/2/6 874/2/6 877/2/6
f 877/2/6 874/2/6 878/2/6
f 876/2/6 877/2/6 881/2/6
f 881/2/6 877/2/6 882/2/6
f 878/2/6 879/2/6 883/2/6
f 883/2/6 879/2/6 884/2/6
f 880/2/6 881/2/6 886/2/6
f 886/2/6 881/2/6 887/2/6
f 884/2/6 885/2/6 888/2/6
f 888/2/6 885/2/6 889/2/6
